<svg xmlns="http://www.w3.org/2000/svg" viewBox="-152 -152 2766 1639">
  <g transform="translate(0,1468) scale(0.1,-0.1)" fill="#FAF3E4" stroke="none">
    <path d="M8090 13515 l0 -385 -3655 0 -3655 0 6 -42 c31 -197 223 -543 481 -863 511 -636 1160 -1200 1933 -1682 622 -387 1361 -715 2126 -941 404 -120 860 -231 1414 -343 423 -86 554 -122 775 -214 405 -167 746 -441 921 -737 151 -257 218 -445 274 -768 31 -179 38 -477 15 -665 -17 -144 -50 -318 -84 -438 -11 -39 -14 -64 -7 -59 465 360 848 779 1453 1592 366 491 653 861 783 1005 310 347 413 451 640 646 300 257 529 414 870 597 318 170 734 303 1134 363 286 42 695 36 1004 -16 451 -77 803 -214 1166 -458 165 -110 384 -304 499 -442 179 -214 326 -536 391 -856 30 -147 51 -406 42 -510 l-7 -74 -109 107 c-166 162 -333 264 -555 341 -172 60 -247 71 -455 71 -212 0 -316 -15 -477 -69 -219 -73 -417 -192 -576 -344 -432 -415 -592 -1001 -432 -1585 136 -496 502 -905 1063 -1189 534 -270 1132 -390 1772 -356 549 30 1128 195 1538 437 l122 73 -28 42 c-115 171 -278 516 -348 737 -188 599 -164 1263 70 1887 386 1028 1233 1981 2312 2601 614 352 1380 632 2564 937 345 89 442 135 572 273 101 108 153 224 183 412 12 77 15 208 15 698 l0 602 -7875 0 -7875 0 0 -385z"/>
  </g>
  <g transform="translate(0,1468) scale(0.1,-0.1)" fill="rgba(250,243,228,0.75)" stroke="none">
    <path d="M13760 9730 c-655 -49 -1297 -409 -1980 -1106 -271 -277 -437 -475 -909 -1089 -744 -968 -1047 -1313 -1481 -1691 -666 -580 -1488 -1080 -2135 -1299 -339 -114 -647 -185 -995 -228 l-185 -23 -3 -1092 -2 -1092 1955 0 1956 0 66 56 c188 160 522 391 762 529 1006 576 2039 795 3151 669 896 -102 1846 -515 2638 -1148 l134 -106 1964 0 1964 0 0 1085 0 1085 -22 5 c-572 123 -1010 324 -1470 672 -53 40 -100 73 -103 73 -4 0 -53 -28 -108 -63 -261 -163 -509 -275 -887 -401 -221 -73 -590 -152 -885 -188 -208 -25 -702 -35 -912 -19 -543 44 -1111 195 -1535 407 -518 260 -928 605 -1198 1009 -207 310 -306 531 -386 862 -84 347 -85 746 -3 1083 53 217 137 440 232 615 64 118 198 321 274 415 81 100 299 312 393 381 234 174 493 296 774 364 54 14 101 26 103 28 5 6 -79 41 -195 83 -128 47 -297 90 -422 109 -126 19 -405 27 -550 15z"/>
  </g>
</svg>
